<svg width="320" height="241" viewBox="0 0 320 241" fill="none" xmlns="http://www.w3.org/2000/svg">
<g clip-path="url(#clip0_1_14)">
<rect width="320" height="241" fill="#FF00FF"/>
<path d="M11.2619 32.0795C10.3697 33.8461 9.28199 34.4054 7.99885 33.7574C7.44097 33.4756 7.06993 33.0665 6.88575 32.53C6.70157 31.9935 6.75036 31.4464 7.03212 30.8885L16.7739 11.5995C17.0462 11.0602 17.4645 10.7172 18.0288 10.5704C18.5604 10.4421 19.1005 10.5165 19.6491 10.7935C20.1977 11.0706 20.5641 11.4657 20.7484 11.9789C20.9373 12.4828 20.8956 13.0044 20.6233 13.5437L11.2619 32.0795ZM19.0997 39.6438C17.3795 38.7751 16.1993 37.438 15.5591 35.6326C14.8543 33.6545 15.0141 31.5705 16.0384 29.3804C17.0112 27.2927 18.4988 25.7451 20.5013 24.7376C22.8726 23.5545 25.3182 23.5993 27.838 24.8719C29.6976 25.8111 30.8003 27.3016 31.1461 29.3434C31.4555 31.1801 31.1101 33.0887 30.1099 35.0692C29.0204 37.2264 27.5141 38.7763 25.591 39.7189C23.4392 40.7677 21.2754 40.7427 19.0997 39.6438ZM25.7971 28.4624C24.6581 27.8755 23.4932 27.9407 22.3024 28.658C21.2984 29.2595 20.4982 30.1507 19.9018 31.3316C19.3383 32.4474 19.2224 33.4625 19.5541 34.3769C19.8167 35.1047 20.2828 35.6376 20.9522 35.9757C21.7612 36.3843 22.6017 36.4645 23.4738 36.2165C24.4766 35.9177 25.2783 35.2315 25.8789 34.1578C27.5119 31.2248 27.4846 29.3264 25.7971 28.4624ZM34.1353 43.6315C33.2431 45.3981 32.1554 45.9574 30.8722 45.3094C30.3143 45.0276 29.9433 44.6185 29.7591 44.082C29.5749 43.5456 29.6237 42.9984 29.9055 42.4405L39.6472 23.1516C39.9196 22.6123 40.3379 22.2692 40.9022 22.1224C41.4338 21.9941 41.9739 22.0685 42.5224 22.3456C43.071 22.6226 43.4375 23.0177 43.6217 23.5309C43.8107 24.0348 43.769 24.5564 43.4967 25.0957L34.1353 43.6315ZM66.1547 51.9431C64.6607 53.9309 63.2636 56.1194 61.9636 58.5087C60.3538 61.465 58.7505 63.3918 57.1537 64.2891C55.0199 65.4871 52.4049 65.3042 49.3086 63.7405C45.6917 61.9137 44.2448 60.2844 44.9679 58.8525C45.2262 58.3411 45.5979 58.0095 46.083 57.8578C46.5681 57.706 47.0756 57.7639 47.6056 58.0316C48.024 58.2429 48.5839 58.6248 49.2851 59.1774C49.9863 59.7299 50.6391 60.1588 51.2435 60.464C52.6289 61.1637 53.8653 61.2572 54.9528 60.7445C56.003 60.2363 57.0394 59.1084 58.062 57.3609C57.3436 57.6049 56.6259 57.6976 55.9087 57.6388C55.1915 57.58 54.4796 57.3721 53.7729 57.0152C51.9226 56.0808 50.7192 54.7203 50.1627 52.9338C49.6202 51.1428 49.8233 49.3081 50.7718 47.4299C52.0491 44.9008 53.854 43.245 56.1864 42.4625C58.6028 41.6523 61.1731 41.9352 63.8975 43.3111C64.7715 43.7525 65.4707 44.2398 65.9949 44.773C66.5192 45.3061 66.8662 45.8899 67.036 46.5241C68.1465 47.26 68.3847 48.2555 67.7507 49.5108C67.4361 50.1337 66.9041 50.9445 66.1547 51.9431ZM62.152 46.4206C60.5806 45.627 59.0973 45.5255 57.702 46.1162C56.4467 46.6608 55.441 47.6816 54.6849 49.1786C54.1261 50.2851 53.915 51.223 54.0517 51.9922C54.1884 52.7614 54.6751 53.3573 55.5119 53.7799C56.2744 54.165 57.2645 54.1107 58.4824 53.6172C59.6303 53.1466 60.462 52.5281 60.9775 51.7615C61.605 50.9581 62.5116 49.6713 63.6973 47.9012C63.4751 47.5556 63.2341 47.2588 62.9742 47.0109C62.7143 46.7629 62.4402 46.5662 62.152 46.4206ZM75.8488 46.2312C75.2537 45.9306 74.8386 45.4701 74.6035 44.8495C74.3685 44.229 74.3965 43.6305 74.6876 43.054C74.9788 42.4775 75.4438 42.0998 76.0828 41.9206C76.7217 41.7415 77.3387 41.8022 77.9338 42.1028C78.5289 42.4033 78.9393 42.8615 79.1651 43.4773C79.4002 44.0979 79.3721 44.6964 79.081 45.2729C78.7898 45.8493 78.3248 46.2271 77.6859 46.4063C77.0562 46.5901 76.4439 46.5317 75.8488 46.2312ZM71.8711 57.0532C71.6034 57.5832 71.1877 58.441 70.6239 59.6266C70.0694 60.817 69.6583 61.6772 69.3907 62.2071C69.1183 62.7464 68.7116 63.1012 68.1705 63.2714C67.6341 63.4322 67.087 63.3718 66.5291 63.0901C65.9712 62.8083 65.5978 62.4038 65.409 61.8767C65.2248 61.3402 65.2689 60.8023 65.5412 60.263C65.8089 59.733 66.22 58.8729 66.7745 57.6825C67.3383 56.4969 67.754 55.639 68.0217 55.109C68.4396 54.2815 69.0097 53.2683 69.7319 52.0693C70.4542 50.8703 71.0243 49.857 71.4422 49.0295C71.7146 48.4902 72.119 48.1401 72.6553 47.9792C73.1964 47.809 73.7459 47.8648 74.3038 48.1466C74.8617 48.4283 75.2327 48.8374 75.4169 49.3739C75.6057 49.9011 75.564 50.4343 75.2916 50.9736C74.8737 51.8011 74.3036 52.8144 73.5814 54.0134C72.8591 55.2124 72.289 56.2256 71.8711 57.0532ZM87.7248 59.1784C87.5295 59.0798 87.2994 58.9577 87.0345 58.8122C86.7835 58.6622 86.5604 58.5378 86.3651 58.4392C85.9839 58.2467 85.5235 58.0608 84.9838 57.8816C83.254 61.7226 82.098 64.2195 81.5157 65.3725C81.4546 65.4934 81.3442 65.7235 81.1845 66.063C81.0294 66.3931 80.9002 66.6604 80.7969 66.865C79.7168 69.0036 78.5027 69.7324 77.1545 69.0515C76.6431 68.7932 76.2812 68.4121 76.069 67.9081C75.8289 67.3667 75.8357 66.845 76.0893 66.3429C76.2583 66.0082 76.5258 65.5131 76.8918 64.8578C77.2578 64.2024 77.5254 63.7073 77.6944 63.3726C78.2626 62.2475 79.3952 59.797 81.0921 56.0212C80.5297 55.7021 79.6933 55.1863 78.5828 54.4738C77.4862 53.7566 77.2103 52.8587 77.7551 51.7801C78.018 51.2594 78.4178 50.907 78.9542 50.7228C79.4907 50.5386 80.0379 50.5874 80.5958 50.8692C80.9398 51.0429 81.702 51.4979 82.8823 52.234C83.0232 51.9318 83.2489 51.4272 83.5592 50.7204C83.8225 50.1065 84.0364 49.6369 84.2007 49.3114C84.4637 48.7907 84.8727 48.4547 85.4277 48.3032C85.9826 48.1517 86.5298 48.2121 87.0691 48.4845C88.4452 49.1795 88.5486 50.6846 87.3793 52.9998L86.7738 54.1294C87.3926 54.3369 87.8832 54.5322 88.2459 54.7153C89.3152 55.2553 90.0098 55.6937 90.3299 56.0304C90.9423 56.6664 91.0278 57.4214 90.5863 58.2955C90.3187 58.8255 89.9143 59.1756 89.3732 59.3457C88.8322 59.5159 88.2827 59.4601 87.7248 59.1784ZM96.2682 61.5677C97.2851 61.241 98.2616 61.1098 99.1977 61.1742C100.148 61.2339 101.064 61.4868 101.948 61.9329C103.538 62.7359 104.456 63.7598 104.703 65.0047C104.885 65.9371 104.682 67.1242 104.094 68.566C103.563 69.7331 103.034 70.9073 102.508 72.0884C101.901 73.6605 101.533 74.6187 101.406 74.9629C101.015 76.0608 100.718 77.0425 100.514 77.9082C100.462 78.1269 100.398 78.3107 100.323 78.4594C100.06 78.9801 99.6441 79.3069 99.0752 79.4397C98.5109 79.5865 97.9638 79.5261 97.4338 79.2584C96.4947 78.7841 96.1205 78.0116 96.3111 76.9409C96.4683 76.0751 96.7991 74.9118 97.3035 73.451C97.7982 72.0555 98.2593 70.9346 98.6866 70.0885C98.804 69.856 98.9894 69.5121 99.2428 69.0565C99.5102 68.5964 99.7026 68.2501 99.82 68.0177C100.167 67.3296 100.36 66.9251 100.398 66.8041C100.572 66.2505 100.46 65.8727 100.06 65.6708C99.0279 65.1495 97.854 65.1518 96.5381 65.6776C95.8709 65.9357 94.8297 66.5418 93.4143 67.4958C91.7144 70.8617 90.5279 72.8065 89.855 73.3302C89.1073 73.9095 88.3383 73.9996 87.5479 73.6004C87.0272 73.3375 86.6492 72.9306 86.4138 72.38C86.1925 71.8247 86.2109 71.2914 86.4692 70.78C86.5584 70.6033 86.734 70.3828 86.9959 70.1183C87.1643 69.9466 87.8541 68.7195 89.0652 66.4371C89.9626 64.5447 91.5427 61.4392 93.8054 57.1205L94.0658 56.6743C94.6757 55.6053 95.0746 54.8849 95.2624 54.5129C95.408 54.2247 95.5752 53.7782 95.7639 53.1733C95.9667 52.5639 96.1409 52.115 96.2864 51.8268C96.5541 51.2968 96.9631 50.9607 97.5134 50.8185C98.0683 50.667 98.6155 50.7274 99.1548 50.9998C100.075 51.4647 100.445 52.2698 100.263 53.415C100.158 54.0621 99.8143 54.9622 99.232 56.1152C98.7624 57.045 98.2579 57.9746 97.7184 58.9042C97.2024 59.7872 96.719 60.675 96.2682 61.5677ZM118.483 78.6863C118.169 79.3093 117.699 80.2507 117.074 81.5107C116.45 82.7706 115.98 83.7121 115.665 84.335C115.567 84.5303 115.433 84.8302 115.264 85.2348C115.108 85.6348 114.981 85.9325 114.883 86.1277C114.62 86.6484 114.213 86.9799 113.663 87.1221C113.117 87.2783 112.57 87.2178 112.021 86.9408C111.25 86.551 110.863 85.9182 110.862 85.0424C109.451 84.8784 108.109 84.4746 106.835 83.8313C105.515 83.1645 104.544 82.3244 103.924 81.311C103.235 80.1575 103.102 78.9178 103.527 77.5919C104.338 75.0842 105.206 72.9145 106.132 71.0828C106.742 69.874 107.579 68.5637 108.642 67.1518C109.359 66.195 110.252 65.9866 111.321 66.5267C111.86 66.799 112.234 67.2035 112.441 67.7401C112.653 68.2673 112.628 68.7913 112.365 69.312C112.158 69.7211 111.764 70.3275 111.184 71.1311C110.612 71.9393 110.211 72.5713 109.981 73.0269C109.319 74.3379 108.781 75.5074 108.367 76.5352C107.967 77.5585 107.693 78.4355 107.545 79.1663C107.726 79.386 107.91 79.5777 108.095 79.7415C108.29 79.91 108.49 80.0459 108.695 80.1492C109.727 80.6705 110.936 81.0946 112.323 81.4217C112.685 80.7057 113.091 79.8898 113.542 78.9738C114.073 77.8766 114.458 77.0908 114.697 76.6166C115.66 74.7105 116.579 73.1094 117.456 71.8132C118.154 70.7771 119.066 70.5432 120.191 71.1114C120.739 71.3885 121.122 71.7976 121.339 72.3389C121.556 72.8802 121.519 73.4041 121.228 73.9107C119.262 77.3641 118.347 78.9559 118.483 78.6863ZM123.391 92.0177C122.089 91.3603 120.968 90.5079 120.026 89.4606C119.508 89.6309 119.003 89.5916 118.51 89.3427C118.008 89.0892 117.66 88.7034 117.467 88.1856C117.282 87.6724 117.317 87.1647 117.571 86.6626C117.683 86.4395 117.869 86.1071 118.127 85.6656C118.389 85.2148 118.577 84.8778 118.69 84.6547L126.671 68.8525C127.009 68.183 127.458 67.6631 128.019 67.2927C128.724 66.8203 129.421 66.7579 130.109 67.1054C131.104 67.6079 131.329 68.3984 130.784 69.477C130.723 69.5979 130.606 69.7838 130.432 70.0346C130.273 70.2809 130.163 70.4644 130.102 70.5853L127.404 75.9271C128.284 75.8934 129.088 75.9432 129.814 76.0765C130.545 76.2006 131.203 76.4106 131.789 76.7064C133.974 77.81 135.339 79.4972 135.884 81.7681C136.388 83.8897 136.105 86.0105 135.034 88.1305C133.945 90.2877 132.292 91.7461 130.076 92.5058C127.814 93.2887 125.585 93.126 123.391 92.0177ZM129.986 80.2769C129.502 80.0327 128.874 79.8904 128.101 79.85C127.328 79.8096 126.405 79.8688 125.333 80.0276C124.877 80.9062 123.88 82.882 122.339 85.9551C123.336 87.147 124.29 87.9731 125.201 88.4333C126.382 89.0297 127.553 89.1253 128.715 88.72C129.881 88.3054 130.77 87.4937 131.38 86.285C131.991 85.0762 132.184 83.9194 131.96 82.8144C131.722 81.6675 131.064 80.8216 129.986 80.2769ZM152.379 107.025C150.333 105.992 148.911 104.545 148.113 102.683C147.273 100.718 147.36 98.7316 148.374 96.7233C149.309 94.8729 150.929 93.2932 153.236 91.9842C155.86 90.4854 158.158 90.2337 160.129 91.2293C161.096 91.7177 162.094 92.5486 163.124 93.722C164.371 95.1572 164.783 96.2932 164.361 97.13C164.13 97.5856 163.768 97.9103 163.274 98.1039C162.746 98.3161 162.218 98.2883 161.688 98.0207C161.288 97.8187 160.912 97.3607 160.561 96.6465C160.224 95.9278 159.493 95.2843 158.368 94.7161C157.652 94.3545 156.521 94.6644 154.975 95.6458C153.49 96.5994 152.498 97.5691 152 98.5547C151.507 99.531 151.473 100.477 151.898 101.391C152.3 102.259 153.05 102.971 154.147 103.525C154.77 103.839 155.652 103.987 156.793 103.969C157.935 103.95 158.626 104.002 158.868 104.124C159.37 104.377 159.706 104.775 159.876 105.316C160.056 105.861 160.028 106.367 159.793 106.832C159.427 107.557 158.271 107.883 156.324 107.81C154.586 107.738 153.271 107.476 152.379 107.025ZM176.054 105.066C175.134 104.601 174.775 103.936 174.979 103.07C174.64 102.818 174.275 102.592 173.885 102.395C171.644 101.263 170.368 101.004 170.059 101.618C169.875 101.981 170.303 102.809 171.341 104.104C172.755 105.88 173.667 107.169 174.079 107.972C174.934 109.629 175.052 111.072 174.432 112.299C173.624 113.898 172.267 114.736 170.362 114.812C168.829 114.867 167.188 114.452 165.44 113.57C164.204 112.945 163.17 112.184 162.34 111.286C161.208 110.061 160.898 108.942 161.41 107.928C161.88 106.998 162.668 106.813 163.774 107.372C164.202 107.588 164.752 108.035 165.425 108.713C166.098 109.391 166.653 109.841 167.09 110.061C168.977 111.015 170.118 111.112 170.512 110.355C170.752 109.88 170.362 109.024 169.342 107.785C167.854 105.972 166.934 104.743 166.583 104.099C165.736 102.516 165.647 101.065 166.314 99.7443C167.258 97.8754 168.884 97.1156 171.193 97.465C172.548 97.6708 174.411 98.3724 176.782 99.5698C177.712 100.039 178.339 100.508 178.663 100.975C179.112 101.61 179.116 102.365 178.675 103.239C177.83 104.913 176.956 105.522 176.054 105.066ZM189.973 112.096C189.053 111.631 188.695 110.966 188.898 110.1C188.559 109.847 188.194 109.622 187.804 109.425C185.563 108.293 184.288 108.034 183.978 108.648C183.795 109.011 184.222 109.839 185.261 111.134C186.674 112.91 187.587 114.199 187.998 115.002C188.853 116.659 188.971 118.102 188.351 119.329C187.543 120.928 186.187 121.766 184.281 121.842C182.748 121.896 181.108 121.482 179.36 120.599C178.123 119.975 177.09 119.214 176.259 118.316C175.128 117.091 174.818 115.972 175.329 114.958C175.799 114.028 176.587 113.843 177.694 114.402C178.121 114.618 178.672 115.065 179.344 115.743C180.017 116.421 180.572 116.871 181.009 117.091C182.896 118.044 184.037 118.142 184.432 117.385C184.671 116.91 184.281 116.054 183.261 114.815C181.773 113.002 180.853 111.773 180.502 111.129C179.656 109.546 179.566 108.094 180.233 106.774C181.177 104.905 182.803 104.145 185.113 104.495C186.467 104.701 188.33 105.402 190.701 106.6C191.631 107.069 192.258 107.538 192.582 108.005C193.032 108.64 193.036 109.395 192.594 110.269C191.749 111.943 190.875 112.552 189.973 112.096ZM212.95 115.473C212.354 115.172 211.939 114.712 211.704 114.091C211.469 113.471 211.497 112.872 211.788 112.296C212.08 111.719 212.545 111.341 213.184 111.162C213.822 110.983 214.439 111.044 215.035 111.344C215.63 111.645 216.04 112.103 216.266 112.719C216.501 113.34 216.473 113.938 216.182 114.515C215.891 115.091 215.426 115.469 214.787 115.648C214.157 115.832 213.545 115.773 212.95 115.473ZM208.972 126.295C208.704 126.825 208.288 127.683 207.725 128.868C207.17 130.059 206.759 130.919 206.491 131.449C206.219 131.988 205.812 132.343 205.271 132.513C204.735 132.674 204.188 132.614 203.63 132.332C203.072 132.05 202.699 131.646 202.51 131.118C202.326 130.582 202.37 130.044 202.642 129.505C202.91 128.975 203.321 128.115 203.875 126.924C204.439 125.739 204.855 124.881 205.122 124.351C205.54 123.523 206.11 122.51 206.833 121.311C207.555 120.112 208.125 119.099 208.543 118.271C208.815 117.732 209.22 117.382 209.756 117.221C210.297 117.051 210.847 117.107 211.405 117.388C211.962 117.67 212.333 118.079 212.518 118.616C212.707 119.143 212.665 119.676 212.392 120.215C211.974 121.043 211.404 122.056 210.682 123.255C209.96 124.454 209.39 125.467 208.972 126.295ZM219.799 141.215C218.655 140.638 218.302 139.754 218.74 138.563C219.094 137.539 219.45 136.511 219.808 135.478C220.185 134.385 220.601 133.388 221.057 132.486C221.179 132.244 221.402 131.837 221.726 131.266C222.059 130.699 222.286 130.294 222.408 130.052C222.441 129.987 222.533 129.829 222.683 129.578C222.837 129.318 222.957 129.104 223.042 128.937C223.431 128.165 223.426 127.678 223.027 127.476C222.171 127.044 221.076 127.122 219.741 127.708C218.421 128.289 217.14 129.23 215.901 130.529C215.727 130.827 215.479 131.215 215.155 131.693C214.888 132.084 214.654 132.479 214.452 132.878C214.32 133.139 214.149 133.548 213.937 134.106C213.739 134.66 213.574 135.067 213.443 135.327C213.175 135.857 212.768 136.2 212.223 136.356C211.682 136.527 211.132 136.471 210.574 136.189C210.016 135.907 209.645 135.498 209.461 134.962C209.272 134.435 209.312 133.906 209.579 133.376C209.711 133.116 209.88 132.711 210.087 132.162C210.299 131.604 210.471 131.195 210.602 130.934C211.053 130.042 211.745 128.833 212.678 127.309C213.611 125.785 214.303 124.576 214.754 123.684C214.895 123.405 215.086 122.982 215.325 122.414C215.579 121.842 215.774 121.422 215.91 121.152C216.173 120.631 216.575 120.297 217.116 120.15C217.671 119.999 218.223 120.062 218.772 120.339C219.99 120.954 220.272 122.013 219.618 123.515L219.555 123.675C221.603 122.994 223.38 123.034 224.886 123.794C226.643 124.682 227.486 126.029 227.413 127.837C227.362 129.048 226.841 130.634 225.85 132.596L225.35 133.586C225.125 134.009 224.967 134.309 224.878 134.486C224.512 135.211 224.137 136.195 223.755 137.437C223.382 138.684 223.015 139.665 222.653 140.381C222.39 140.902 221.986 141.241 221.44 141.397C220.894 141.553 220.347 141.492 219.799 141.215ZM237.782 128.102C237.187 127.801 236.772 127.341 236.537 126.72C236.311 126.104 236.346 125.504 236.642 124.918C236.938 124.332 237.401 123.947 238.03 123.763C238.674 123.575 239.293 123.631 239.888 123.932C240.483 124.232 240.896 124.697 241.127 125.327C241.362 125.948 241.331 126.551 241.035 127.137C240.74 127.722 240.272 128.105 239.633 128.284C238.994 128.463 238.377 128.402 237.782 128.102ZM227.364 147.067C227.857 146.09 229 143.435 230.792 139.1C232.584 134.766 233.678 132.208 234.072 131.427C234.354 130.869 234.77 130.449 235.321 130.167C235.956 129.858 236.576 129.856 237.18 130.161C237.608 130.377 237.963 130.737 238.245 131.241C238.55 131.792 238.609 132.277 238.421 132.695C237.635 134.528 236.485 137.185 234.971 140.669C232.945 145.305 231.673 148.135 231.157 149.157C230.476 150.506 229.428 151.529 228.014 152.226C226.446 152.998 224.964 153.032 223.569 152.327C221.319 151.191 220.277 148.669 220.441 144.761C220.457 144.384 220.533 144.06 220.669 143.79C220.927 143.279 221.355 142.941 221.952 142.775C222.525 142.633 223.072 142.694 223.593 142.957C224.188 143.257 224.552 143.843 224.683 144.715C224.717 145.479 224.754 146.25 224.793 147.028C224.84 147.858 225.064 148.373 225.464 148.575C225.948 148.82 226.581 148.317 227.364 147.067ZM242.486 152.236C240.263 151.113 238.713 149.665 237.835 147.891C236.865 145.931 236.917 143.886 237.993 141.757C239.181 139.404 240.804 137.727 242.863 136.724C245.15 135.615 247.46 135.65 249.794 136.829C251.412 137.646 252.624 138.585 253.43 139.646C254.487 141.043 254.649 142.467 253.916 143.917C253.4 144.94 252.37 145.558 250.827 145.771C250.123 145.87 248.81 145.872 246.886 145.776L241.136 145.48C241.338 146.189 241.694 146.824 242.205 147.385C242.715 147.946 243.379 148.433 244.197 148.846C245.443 149.476 246.628 149.753 247.751 149.678C248.753 149.612 249.486 149.697 249.951 149.932C250.918 150.42 251.164 151.134 250.69 152.073C250.155 153.133 248.941 153.606 247.051 153.491C245.467 153.391 243.945 152.973 242.486 152.236ZM248.089 140.204C247.225 139.768 246.34 139.682 245.435 139.949C244.53 140.216 243.601 140.831 242.646 141.797C243.927 141.872 245.201 141.949 246.468 142.029C248.01 142.095 249.274 142.075 250.262 141.967C249.818 141.299 249.094 140.711 248.089 140.204ZM257.736 160.235C255.69 159.202 254.268 157.754 253.47 155.893C252.63 153.928 252.717 151.941 253.731 149.933C254.666 148.083 256.286 146.503 258.593 145.194C261.217 143.695 263.515 143.443 265.486 144.439C266.453 144.927 267.451 145.758 268.481 146.932C269.728 148.367 270.14 149.503 269.718 150.34C269.487 150.795 269.125 151.12 268.631 151.314C268.103 151.526 267.575 151.498 267.045 151.23C266.645 151.029 266.269 150.57 265.918 149.856C265.581 149.138 264.85 148.494 263.725 147.926C263.009 147.564 261.878 147.874 260.332 148.856C258.847 149.809 257.855 150.779 257.357 151.764C256.864 152.741 256.83 153.686 257.255 154.601C257.657 155.469 258.407 156.18 259.504 156.734C260.127 157.049 261.009 157.197 262.15 157.178C263.292 157.16 263.983 157.211 264.225 157.333C264.727 157.587 265.063 157.984 265.233 158.525C265.413 159.071 265.385 159.576 265.15 160.041C264.784 160.767 263.628 161.093 261.681 161.02C259.943 160.947 258.628 160.686 257.736 160.235ZM281.953 157.272C281.758 157.173 281.528 157.051 281.263 156.906C281.012 156.756 280.789 156.631 280.594 156.533C280.212 156.34 279.752 156.154 279.212 155.975C277.482 159.816 276.326 162.313 275.744 163.466C275.683 163.587 275.573 163.817 275.413 164.157C275.258 164.487 275.129 164.754 275.025 164.959C273.945 167.097 272.731 167.826 271.383 167.145C270.872 166.887 270.51 166.506 270.297 166.002C270.057 165.46 270.064 164.939 270.318 164.437C270.487 164.102 270.754 163.607 271.12 162.951C271.486 162.296 271.754 161.801 271.923 161.466C272.491 160.341 273.624 157.891 275.321 154.115C274.758 153.796 273.922 153.28 272.811 152.567C271.715 151.85 271.439 150.952 271.984 149.874C272.246 149.353 272.646 149.001 273.183 148.816C273.719 148.632 274.266 148.681 274.824 148.963C275.168 149.137 275.93 149.591 277.111 150.328C277.252 150.025 277.477 149.521 277.788 148.814C278.051 148.2 278.265 147.73 278.429 147.405C278.692 146.884 279.101 146.548 279.656 146.397C280.211 146.245 280.758 146.306 281.297 146.578C282.674 147.273 282.777 148.778 281.608 151.093L281.002 152.223C281.621 152.43 282.112 152.626 282.474 152.809C283.544 153.349 284.238 153.787 284.558 154.124C285.171 154.76 285.256 155.515 284.815 156.389C284.547 156.919 284.143 157.269 283.602 157.439C283.061 157.61 282.511 157.554 281.953 157.272ZM291.556 155.172C290.961 154.872 290.546 154.411 290.311 153.791C290.076 153.17 290.104 152.572 290.395 151.995C290.686 151.419 291.151 151.041 291.79 150.862C292.429 150.683 293.046 150.743 293.641 151.044C294.236 151.345 294.646 151.803 294.872 152.419C295.107 153.039 295.079 153.638 294.788 154.214C294.497 154.791 294.032 155.168 293.393 155.347C292.763 155.531 292.151 155.473 291.556 155.172ZM287.578 165.994C287.311 166.524 286.895 167.382 286.331 168.568C285.777 169.758 285.365 170.618 285.098 171.148C284.825 171.688 284.419 172.042 283.878 172.213C283.341 172.373 282.794 172.313 282.236 172.031C281.678 171.75 281.305 171.345 281.116 170.818C280.932 170.281 280.976 169.744 281.248 169.204C281.516 168.674 281.927 167.814 282.482 166.624C283.045 165.438 283.461 164.58 283.729 164.05C284.147 163.223 284.717 162.209 285.439 161.01C286.161 159.811 286.731 158.798 287.149 157.971C287.422 157.431 287.826 157.081 288.362 156.92C288.903 156.75 289.453 156.806 290.011 157.088C290.569 157.37 290.94 157.779 291.124 158.315C291.313 158.842 291.271 159.376 290.999 159.915C290.581 160.742 290.011 161.756 289.288 162.955C288.566 164.154 287.996 165.167 287.578 165.994ZM293.245 178.099C291.525 177.23 290.345 175.893 289.705 174.088C289 172.11 289.16 170.026 290.184 167.836C291.157 165.748 292.645 164.2 294.647 163.193C297.018 162.01 299.464 162.055 301.984 163.327C303.843 164.266 304.946 165.757 305.292 167.799C305.601 169.635 305.256 171.544 304.256 173.524C303.166 175.682 301.66 177.232 299.737 178.174C297.585 179.223 295.421 179.198 293.245 178.099ZM299.943 166.918C298.804 166.331 297.639 166.396 296.448 167.113C295.444 167.715 294.644 168.606 294.048 169.787C293.484 170.903 293.368 171.918 293.7 172.832C293.963 173.56 294.429 174.093 295.098 174.431C295.907 174.839 296.747 174.92 297.62 174.672C298.622 174.373 299.424 173.687 300.025 172.613C301.658 169.68 301.63 167.782 299.943 166.918ZM313.44 188.508C312.296 187.931 311.944 187.046 312.382 185.856C312.735 184.832 313.091 183.804 313.449 182.771C313.826 181.678 314.243 180.681 314.698 179.779C314.82 179.537 315.043 179.13 315.367 178.558C315.7 177.991 315.927 177.587 316.05 177.345C316.082 177.28 316.174 177.122 316.324 176.871C316.479 176.611 316.598 176.397 316.683 176.23C317.073 175.458 317.068 174.971 316.668 174.769C315.812 174.337 314.717 174.414 313.383 175.001C312.062 175.582 310.782 176.523 309.542 177.822C309.368 178.12 309.12 178.508 308.797 178.986C308.53 179.376 308.295 179.771 308.093 180.171C307.962 180.432 307.79 180.841 307.578 181.399C307.38 181.953 307.215 182.36 307.084 182.62C306.816 183.15 306.41 183.493 305.864 183.649C305.323 183.819 304.773 183.764 304.216 183.482C303.658 183.2 303.287 182.791 303.102 182.255C302.914 181.727 302.953 181.199 303.221 180.669C303.352 180.408 303.521 180.004 303.729 179.455C303.941 178.897 304.112 178.488 304.244 178.227C304.695 177.335 305.387 176.126 306.32 174.602C307.253 173.078 307.945 171.869 308.396 170.977C308.537 170.698 308.727 170.275 308.967 169.707C309.221 169.135 309.416 168.714 309.552 168.445C309.815 167.924 310.217 167.59 310.758 167.443C311.313 167.292 311.865 167.355 312.413 167.632C313.631 168.247 313.913 169.305 313.26 170.808L313.196 170.968C315.244 170.287 317.021 170.327 318.527 171.087C320.285 171.975 321.127 173.322 321.055 175.129C321.003 176.34 320.482 177.927 319.491 179.889L318.991 180.879C318.766 181.302 318.609 181.602 318.519 181.779C318.153 182.504 317.779 183.488 317.396 184.73C317.023 185.977 316.656 186.958 316.295 187.674C316.032 188.195 315.627 188.533 315.082 188.69C314.536 188.846 313.989 188.785 313.44 188.508Z" fill="#00FF00"/>
</g>
<defs>
<clipPath id="clip0_1_14">
<rect width="320" height="241" fill="white"/>
</clipPath>
</defs>
</svg>
